<svg xmlns="http://www.w3.org/2000/svg" xmlns:xlink="http://www.w3.org/1999/xlink" width="150" height="75" viewBox="0 0 150 75">
  <defs>
    <clipPath id="clip-path">
      <rect id="Rectangle_317" data-name="Rectangle 317" width="150" height="75" transform="translate(952 6336)" fill="#fff" stroke="#707070" stroke-width="1"/>
    </clipPath>
    <clipPath id="clip-path-2">
      <path id="Path_745" data-name="Path 745" d="M0,0H150V18.656H0Z"/>
    </clipPath>
  </defs>
  <g id="Mask_Group_4" data-name="Mask Group 4" transform="translate(-952 -6336)" clip-path="url(#clip-path)">
    <g id="logo_1_" data-name="logo (1)" transform="translate(952 6360)" clip-path="url(#clip-path-2)">
      <path id="Path_742" data-name="Path 742" d="M8.73,17.528a7.937,7.937,0,0,0,6.889-3.72l-3.169-1.837a4.15,4.15,0,0,1-3.72,1.975,4.568,4.568,0,0,1-3.421-1.309A4.739,4.739,0,0,1,4.045,9.17,4.739,4.739,0,0,1,5.308,5.7,4.568,4.568,0,0,1,8.73,4.394a4.109,4.109,0,0,1,3.72,1.975l3.169-1.837A8.022,8.022,0,0,0,8.73.812,8.161,8.161,0,0,0,.371,9.17,8.126,8.126,0,0,0,8.73,17.528Zm22.388-.322-3.421-5.9a5.351,5.351,0,0,0,2.962-4.661,5.285,5.285,0,0,0-1.607-3.9,5.285,5.285,0,0,0-3.9-1.607H18.718V17.207h3.674V11.926h1.745l3.031,5.281ZM25.147,4.578a1.946,1.946,0,0,1,1.837,2.067,1.946,1.946,0,0,1-1.837,2.067H22.392V4.578Zm22.445,10.54A8,8,0,0,0,50.026,9.17a8,8,0,0,0-2.434-5.947,8.484,8.484,0,0,0-11.848,0A8,8,0,0,0,33.309,9.17a8,8,0,0,0,2.434,5.947,8.484,8.484,0,0,0,11.848,0Zm-9.277-2.5A4.655,4.655,0,0,1,36.983,9.17a4.655,4.655,0,0,1,1.332-3.444,4.552,4.552,0,0,1,3.352-1.332A4.5,4.5,0,0,1,45,5.726,4.672,4.672,0,0,1,46.352,9.17,4.672,4.672,0,0,1,45,12.614a4.5,4.5,0,0,1-3.329,1.332A4.552,4.552,0,0,1,38.315,12.614Zm20.2,4.914a6.764,6.764,0,0,0,4.317-1.309,4.41,4.41,0,0,0,1.653-3.628,4.444,4.444,0,0,0-1.1-2.985,3.928,3.928,0,0,0-1.24-.9,7.971,7.971,0,0,0-1.332-.62l-1.492-.482a8.043,8.043,0,0,1-2.342-.964,1.309,1.309,0,0,1-.551-1.033c0-.666.62-1.217,1.722-1.217a2.809,2.809,0,0,1,2.778,1.86l3.1-1.814A6.234,6.234,0,0,0,58.147.812a5.76,5.76,0,0,0-3.812,1.332A4.414,4.414,0,0,0,52.751,5.7a4.142,4.142,0,0,0,1.47,3.375,8.91,8.91,0,0,0,3.261,1.515,11.485,11.485,0,0,1,2.618.941,1.181,1.181,0,0,1,.712,1.1c0,.873-.735,1.309-2.181,1.309a3.4,3.4,0,0,1-3.375-2.227l-3.169,1.837C53,16.013,55.231,17.528,58.515,17.528Zm14.361,0a6.764,6.764,0,0,0,4.317-1.309,4.41,4.41,0,0,0,1.653-3.628,4.444,4.444,0,0,0-1.1-2.985,3.93,3.93,0,0,0-1.24-.9,7.976,7.976,0,0,0-1.332-.62l-1.493-.482a8.045,8.045,0,0,1-2.342-.964,1.309,1.309,0,0,1-.551-1.033c0-.666.62-1.217,1.722-1.217a2.809,2.809,0,0,1,2.778,1.86l3.1-1.814A6.234,6.234,0,0,0,72.508.812,5.76,5.76,0,0,0,68.7,2.144,4.414,4.414,0,0,0,67.112,5.7a4.141,4.141,0,0,0,1.47,3.375,8.91,8.91,0,0,0,3.261,1.515,11.484,11.484,0,0,1,2.618.941,1.181,1.181,0,0,1,.712,1.1c0,.873-.735,1.309-2.181,1.309a3.4,3.4,0,0,1-3.375-2.227l-3.169,1.837C67.365,16.013,69.592,17.528,72.876,17.528Z" transform="translate(0.124 0.27)"/>
      <path id="Path_743" data-name="Path 743" d="M61.672,1.133V17.207h3.674V12.155h2.411a5.419,5.419,0,0,0,4-1.607,5.306,5.306,0,0,0,1.63-3.9,5.306,5.306,0,0,0-1.63-3.9,5.419,5.419,0,0,0-4-1.607Zm3.674,7.577V4.578h2.411a1.964,1.964,0,0,1,1.952,2.067,1.964,1.964,0,0,1-1.952,2.067Zm23.647,8.5-3.421-5.9a5.351,5.351,0,0,0,2.962-4.661,5.285,5.285,0,0,0-1.607-3.9,5.285,5.285,0,0,0-3.9-1.607H76.594V17.207h3.674V11.926h1.745l3.031,5.281ZM83.023,4.578A1.946,1.946,0,0,1,84.86,6.644a1.946,1.946,0,0,1-1.837,2.067H80.268V4.578Zm22.445,10.54A8,8,0,0,0,107.9,9.17a8,8,0,0,0-2.434-5.947,8.484,8.484,0,0,0-11.848,0A8,8,0,0,0,91.186,9.17a8,8,0,0,0,2.434,5.947,8.484,8.484,0,0,0,11.848,0Zm-9.277-2.5A4.654,4.654,0,0,1,94.86,9.17a4.654,4.654,0,0,1,1.332-3.444,4.552,4.552,0,0,1,3.352-1.332,4.5,4.5,0,0,1,3.33,1.332,4.672,4.672,0,0,1,1.355,3.444,4.672,4.672,0,0,1-1.355,3.444,4.5,4.5,0,0,1-3.33,1.332A4.552,4.552,0,0,1,96.191,12.614ZM123.747,1.133l-4.363,7.141-4.363-7.141h-3.673V17.207h3.673V7.861l4.156,6.82h.414l4.155-6.82v9.346h3.674V1.133Z" transform="translate(20.511 0.27)"/>
    </g>
  </g>
</svg>
