<svg xmlns="http://www.w3.org/2000/svg" xmlns:xlink="http://www.w3.org/1999/xlink" width="150" height="75" viewBox="0 0 150 75">
  <defs>
    <clipPath id="clip-path">
      <rect id="Rectangle_321" data-name="Rectangle 321" width="150" height="75" transform="translate(1337 6853)" fill="#fff" stroke="#707070" stroke-width="1"/>
    </clipPath>
  </defs>
  <g id="Mask_Group_6" data-name="Mask Group 6" transform="translate(-1337 -6853)" clip-path="url(#clip-path)">
    <g id="Group_3275" data-name="Group 3275" transform="translate(1293.052 6832.072)">
      <g id="Group_3" data-name="Group 3" transform="translate(44.298 44)">
        <path id="Path_10" data-name="Path 10" d="M308.366,48.8H294.291l-2.455,13.346a21.511,21.511,0,0,1,3.288-.229c4.863,0,6.762,1.244,6.653,3.469-.114,2.3-2.6,3.053-4.675,3.053a18.047,18.047,0,0,1-6.164-1.487l-.966,5.324a17.394,17.394,0,0,0,7.247,1.448c7.163,0,11.331-4.223,11.553-8.709.136-2.753-.707-4.75-2.452-6.069a11.483,11.483,0,0,0-6.878-1.961c-.453,0-.867,0-1.4.037l.47-2.639h9.576Z" transform="translate(-159.135 -47.495)" fill-rule="evenodd"/>
        <path id="Path_11" data-name="Path 11" d="M63.337,72.061l2.975-24.445H64.317L54.851,64.7c-1.051,1.922-1.958,3.7-2.539,4.97h-.106c-.073-1.269-.362-3.192-.688-5.113l-2.65-16.939H46.98L40.525,72.061h1.633l3.881-15.124c.544-2.141,1.342-5.839,1.74-7.471h.076c.218,2.031.472,4.533.943,7.4l2.393,15.2h1.2L61.053,56.5c1.342-2.394,2.611-5,3.594-7.035h.109c-.327,1.632-.87,5.331-1.124,7.471L61.705,72.061Zm6.865,0L73.54,54.653H71.906L68.57,72.061ZM73.574,51.1a1.448,1.448,0,0,0,1.415-1.453,1.317,1.317,0,0,0-1.305-1.453,1.413,1.413,0,0,0-1.342,1.453,1.3,1.3,0,0,0,1.2,1.453Zm3.817,20.963,4.932-25.75H80.656l-4.9,25.75Zm16.367-2.283a8.87,8.87,0,0,1-4.57,1.233,4.16,4.16,0,0,1-4.206-2.974,9.717,9.717,0,0,1-.254-4.282c6.129.109,11.787-.834,11.787-5.513,0-2.031-1.342-3.989-4.5-3.989-5.186,0-9.1,6.2-9.1,11.388,0,3.446,1.633,6.819,6.057,6.819a9.642,9.642,0,0,0,5.259-1.415Zm1.088-11.424c0,3.409-4.715,4.1-9.864,4.025.98-3.409,3.594-6.709,6.746-6.709,1.777,0,3.119.906,3.119,2.647v.037Zm4.8,13.709,1.632-8.922c.834-4.606,4.533-7.435,7-7.435,2.5,0,3.336,1.559,3.336,3.626a16.717,16.717,0,0,1-.254,2.393L109.4,72.062h1.633l1.922-10.191a16.147,16.147,0,0,0,.327-2.753c0-4.026-2.793-4.86-4.353-4.86a7.939,7.939,0,0,0-6.711,4.126h-.073l.544-3.735h-1.523c-.181,1.376-.4,2.9-.765,4.678L98.01,72.061Zm18.433,0,3.333-17.41h-1.629l-3.337,17.408ZM121.448,51.1a1.448,1.448,0,0,0,1.415-1.453,1.317,1.317,0,0,0-1.305-1.453,1.412,1.412,0,0,0-1.342,1.453,1.3,1.3,0,0,0,1.2,1.453Zm16.33,3.554L136,64.12c-.765,4.025-4.171,6.855-6.6,6.855-2.539,0-3.446-1.453-3.446-3.663a13.449,13.449,0,0,1,.327-2.72l1.886-9.941h-1.635l-1.886,9.9a14.674,14.674,0,0,0-.327,2.753c0,4.389,2.793,5.15,4.678,5.15,2.43,0,4.824-1.7,6.238-3.989h.073l-.544,3.594h1.559a44.827,44.827,0,0,1,.653-4.678l2.43-12.73Zm5.558,17.408,1.74-9.319c.688-3.88,3.989-7.035,6.42-7.035,2.793,0,3.228,1.886,3.228,3.518a9.86,9.86,0,0,1-.254,2.212l-2.031,10.629h1.632l1.777-9.575c.765-4.134,3.881-6.782,6.347-6.782,2.394,0,3.192,1.376,3.192,3.626a12.025,12.025,0,0,1-.254,2.358l-1.958,10.373h1.633l2-10.373a17.845,17.845,0,0,0,.254-2.938,4.156,4.156,0,0,0-4.206-4.5c-2.865.036-5.077,1.559-6.637,4.243-.109-2.611-1.453-4.243-4.025-4.243-2.393,0-4.606,1.376-6.275,3.917h-.073l.544-3.518h-1.523c-.181,1.376-.4,2.9-.765,4.678L141.7,72.067Z" transform="translate(-40.525 -46.311)" fill-rule="evenodd"/>
      </g>
    </g>
  </g>
</svg>
