<svg xmlns="http://www.w3.org/2000/svg" xmlns:xlink="http://www.w3.org/1999/xlink" width="150" height="75" viewBox="0 0 150 75">
  <defs>
    <clipPath id="clip-path">
      <rect id="Rectangle_319" data-name="Rectangle 319" width="150" height="75" transform="translate(1337 6423)" stroke="#707070" stroke-width="1"/>
    </clipPath>
  </defs>
  <g id="Group_2939" data-name="Group 2939" transform="translate(-1337 -6423)">
    <g id="Group_7" data-name="Group 7" clip-path="url(#clip-path)">
      <g id="Group_2973" data-name="Group 2973" transform="translate(1371.304 6548.318)">
        <path id="Path_790" data-name="Path 790" d="M-33.3-94.909a25.529,25.529,0,0,1,4.219-.287,6.623,6.623,0,0,1,4.218,1.106A4.036,4.036,0,0,1-23.393-90.9a4.411,4.411,0,0,1-1.269,3.277,6.4,6.4,0,0,1-4.485,1.454,7.843,7.843,0,0,1-1.065-.062v4.935H-33.3Zm3.092,6.266a4.805,4.805,0,0,0,1.045.082c1.658,0,2.682-.839,2.682-2.252,0-1.27-.88-2.028-2.437-2.028a5.34,5.34,0,0,0-1.29.123Z" fill="#151515"/>
        <path id="Path_791" data-name="Path 791" d="M-11.19-87.127h-5.079v3.276H-10.6v2.559H-19.4v-13.8h8.519v2.559h-5.386v2.867h5.079Z" fill="#151515"/>
        <path id="Path_792" data-name="Path 792" d="M-6.462-94.909A27.4,27.4,0,0,1-2.305-95.2c2.048,0,3.481.307,4.464,1.086a3.5,3.5,0,0,1,1.27,2.887,3.662,3.662,0,0,1-2.437,3.4v.062a3.481,3.481,0,0,1,1.843,2.58c.43,1.556.86,3.358,1.126,3.89H.767A17.226,17.226,0,0,1-.2-84.506c-.368-1.721-.962-2.191-2.232-2.212H-3.37v5.426H-6.462Zm3.092,5.938h1.229c1.556,0,2.477-.778,2.477-1.986,0-1.27-.859-1.9-2.293-1.925a7.76,7.76,0,0,0-1.413.1Z" fill="#151515"/>
        <path id="Path_793" data-name="Path 793" d="M7.686-95.093h3.092v6.1h.061c.307-.532.635-1.024.942-1.515l3.134-4.587h3.829l-4.567,5.877,4.812,7.924H15.345L11.966-87.25,10.778-85.8v4.5H7.686Z" fill="#151515"/>
        <path id="Path_794" data-name="Path 794" d="M22.264-95.093H30.7v2.559H25.4v3.154h4.956v2.539H25.4v5.549H22.264Z" fill="#585858"/>
        <path id="Path_795" data-name="Path 795" d="M43.271-87.127H38.193v3.276h5.672v2.559H35.06v-13.8h8.519v2.559H38.193v2.867h5.078Z" fill="#585858"/>
        <path id="Path_796" data-name="Path 796" d="M58.136-81.681a8.885,8.885,0,0,1-3.542.594c-4.772,0-7.229-2.969-7.229-6.9,0-4.709,3.359-7.33,7.536-7.33a8.132,8.132,0,0,1,3.4.614l-.635,2.477a6.745,6.745,0,0,0-2.621-.511c-2.478,0-4.4,1.494-4.4,4.566,0,2.765,1.638,4.5,4.422,4.5a7.818,7.818,0,0,0,2.6-.45Z" fill="#585858"/>
        <path id="Path_797" data-name="Path 797" d="M65.137-92.472H61.431v-2.621H72.038v2.621H68.27v11.18H65.137Z" fill="#585858"/>
        <path id="Path_798" data-name="Path 798" d="M78.834-95.093v13.8H75.7v-13.8Z" fill="#585858"/>
        <path id="Path_799" data-name="Path 799" d="M96.177-88.336c0,4.526-2.743,7.27-6.778,7.27-4.1,0-6.491-3.092-6.491-7.024,0-4.137,2.642-7.228,6.717-7.228C93.863-95.318,96.177-92.145,96.177-88.336Zm-9.972.185c0,2.7,1.27,4.607,3.358,4.607,2.109,0,3.317-2.007,3.317-4.689,0-2.478-1.187-4.608-3.337-4.608C87.434-92.841,86.205-90.834,86.205-88.151Z" fill="#585858"/>
        <path id="Path_800" data-name="Path 800" d="M100.229-81.292v-13.8h3.646l2.866,5.058a39.934,39.934,0,0,1,2.253,4.73h.061a51.4,51.4,0,0,1-.266-5.754v-4.034h2.867v13.8h-3.277l-2.948-5.324a50.9,50.9,0,0,1-2.4-4.873l-.061.02c.081,1.823.122,3.768.122,6.021v4.156Z" fill="#585858"/>
      </g>
    </g>
  </g>
</svg>
