<svg xmlns="http://www.w3.org/2000/svg" width="400" height="400" viewBox="0 0 400 400">
  <path id="Subtraction_2" data-name="Subtraction 2" d="M17948.809,6946.5a198.731,198.731,0,0,1-111.619-34.278,202.486,202.486,0,0,1-54.1-54.1,200.462,200.462,0,0,1-18.49-33.964,198.673,198.673,0,0,1,0-155.312,200.569,200.569,0,0,1,18.49-33.966,202.535,202.535,0,0,1,54.1-54.1,200.716,200.716,0,0,1,33.965-18.5,198.814,198.814,0,0,1,189.273,18.5,201.752,201.752,0,0,1,72.6,88.067,198.824,198.824,0,0,1-18.5,189.276,202.561,202.561,0,0,1-54.1,54.1,200.57,200.57,0,0,1-33.961,18.5,198.175,198.175,0,0,1-77.658,15.782Zm-.936-185.234-72.928,73.521v54.7l72.928-72.931h0l73.52,72.931v-54.7Zm-142.928-87.633,73.527,72.931-73.527,73.52h55.289l72.934-73.52-73.521-72.93h-54.7Zm231.152,0-73.52,72.931,73.52,73.52h54.7l-72.93-73.52,72.93-72.93h-54.7Zm-161.152-69.991h0v55.289l72.928,72.931,73.52-73.521v-54.7l-73.52,73.52-72.928-73.52Z" transform="translate(-17748.809 -6546.499)" fill="#eeeff3" opacity="0.7"/>
</svg>
